<svg xmlns="http://www.w3.org/2000/svg" xmlns:xlink="http://www.w3.org/1999/xlink" width="500" zoomAndPan="magnify" viewBox="9 8 356 359" height="500" preserveAspectRatio="xMidYMid meet" version="1.0"><defs><clipPath id="cfcf18468c"><path d="M 9 8 L 365.046875 8 L 365.046875 367 L 9 367 Z M 9 8 " clip-rule="nonzero"/></clipPath><clipPath id="b48449c301"><path d="M 27.203125 8.175781 L 347.796875 8.175781 C 352.371094 8.175781 356.761719 9.992188 359.996094 13.226562 C 363.230469 16.460938 365.046875 20.851562 365.046875 25.425781 L 365.046875 349.574219 C 365.046875 354.148438 363.230469 358.539062 359.996094 361.773438 C 356.761719 365.007812 352.371094 366.824219 347.796875 366.824219 L 27.203125 366.824219 C 22.628906 366.824219 18.238281 365.007812 15.003906 361.773438 C 11.769531 358.539062 9.953125 354.148438 9.953125 349.574219 L 9.953125 25.425781 C 9.953125 20.851562 11.769531 16.460938 15.003906 13.226562 C 18.238281 9.992188 22.628906 8.175781 27.203125 8.175781 Z M 27.203125 8.175781 " clip-rule="nonzero"/></clipPath><clipPath id="f628d45802"><path d="M 0.839844 0.160156 L 356.046875 0.160156 L 356.046875 358.960938 L 0.839844 358.960938 Z M 0.839844 0.160156 " clip-rule="nonzero"/></clipPath><clipPath id="ec7f93ee29"><path d="M 18.203125 0.175781 L 338.796875 0.175781 C 343.371094 0.175781 347.761719 1.992188 350.996094 5.226562 C 354.230469 8.460938 356.046875 12.851562 356.046875 17.425781 L 356.046875 341.574219 C 356.046875 346.148438 354.230469 350.539062 350.996094 353.773438 C 347.761719 357.007812 343.371094 358.824219 338.796875 358.824219 L 18.203125 358.824219 C 13.628906 358.824219 9.238281 357.007812 6.003906 353.773438 C 2.769531 350.539062 0.953125 346.148438 0.953125 341.574219 L 0.953125 17.425781 C 0.953125 12.851562 2.769531 8.460938 6.003906 5.226562 C 9.238281 1.992188 13.628906 0.175781 18.203125 0.175781 Z M 18.203125 0.175781 " clip-rule="nonzero"/></clipPath><clipPath id="4e7225d4ce"><rect x="0" width="357" y="0" height="359"/></clipPath><clipPath id="a13e661fdc"><path d="M 37 37 L 337.5 37 L 337.5 337.5 L 37 337.5 Z M 37 37 " clip-rule="nonzero"/></clipPath><clipPath id="322594603a"><path d="M 202.007812 38.203125 L 206.785156 61.46875 C 216.03125 62.882812 225.097656 65.308594 233.8125 68.710938 L 249.582031 50.953125 C 258.410156 54.960938 266.824219 59.824219 274.710938 65.457031 L 267.21875 87.996094 C 274.519531 93.84375 281.15625 100.476562 287.003906 107.78125 L 309.539062 100.285156 C 315.175781 108.171875 320.035156 116.589844 324.046875 125.414062 L 306.289062 141.183594 C 309.6875 149.902344 312.117188 158.964844 313.53125 168.210938 L 336.796875 172.992188 C 337.734375 182.640625 337.734375 192.359375 336.796875 202.007812 L 313.53125 206.78125 C 312.117188 216.035156 309.6875 225.097656 306.289062 233.816406 L 324.046875 249.585938 C 320.035156 258.410156 315.175781 266.820312 309.539062 274.707031 L 287.003906 267.21875 C 281.15625 274.515625 274.519531 281.15625 267.21875 287.003906 L 274.710938 309.539062 C 266.824219 315.175781 258.410156 320.03125 249.582031 324.046875 L 233.8125 306.289062 C 225.097656 309.6875 216.03125 312.117188 206.785156 313.53125 L 202.007812 336.796875 C 192.355469 337.734375 182.640625 337.734375 172.992188 336.796875 L 168.214844 313.53125 C 158.964844 312.117188 149.902344 309.6875 141.183594 306.289062 L 125.410156 324.046875 C 116.589844 320.03125 108.175781 315.175781 100.285156 309.539062 L 107.78125 287.003906 C 100.480469 281.15625 93.839844 274.515625 87.992188 267.21875 L 65.457031 274.707031 C 59.824219 266.820312 54.960938 258.410156 50.945312 249.585938 L 68.703125 233.816406 C 65.308594 225.097656 62.878906 216.035156 61.464844 206.78125 L 38.203125 202.007812 C 37.265625 192.359375 37.265625 182.640625 38.203125 172.992188 L 61.464844 168.210938 C 62.878906 158.964844 65.308594 149.902344 68.703125 141.183594 L 50.945312 125.414062 C 54.960938 116.589844 59.824219 108.171875 65.457031 100.285156 L 87.992188 107.78125 C 93.839844 100.476562 100.480469 93.84375 107.78125 87.996094 L 100.285156 65.457031 C 108.175781 59.824219 116.589844 54.960938 125.410156 50.953125 L 141.183594 68.710938 C 149.902344 65.308594 158.964844 62.882812 168.214844 61.46875 L 172.992188 38.203125 C 182.640625 37.265625 192.355469 37.265625 202.007812 38.203125 Z M 187.5 157.5 C 170.941406 157.5 157.5 170.941406 157.5 187.496094 C 157.5 204.058594 170.941406 217.5 187.5 217.5 C 204.054688 217.5 217.5 204.058594 217.5 187.496094 C 217.5 170.941406 204.054688 157.5 187.5 157.5 Z M 187.5 157.5 " clip-rule="nonzero"/></clipPath><clipPath id="eba96d1ce2"><path d="M 0.441406 0.441406 L 300.5 0.441406 L 300.5 300.5 L 0.441406 300.5 Z M 0.441406 0.441406 " clip-rule="nonzero"/></clipPath><clipPath id="96cfd75c76"><path d="M 165.007812 1.203125 L 169.785156 24.46875 C 179.03125 25.882812 188.097656 28.308594 196.8125 31.710938 L 212.582031 13.953125 C 221.410156 17.960938 229.824219 22.824219 237.710938 28.457031 L 230.21875 50.996094 C 237.519531 56.84375 244.15625 63.476562 250.003906 70.78125 L 272.539062 63.285156 C 278.175781 71.171875 283.035156 79.589844 287.046875 88.414062 L 269.289062 104.183594 C 272.6875 112.902344 275.117188 121.964844 276.53125 131.210938 L 299.796875 135.992188 C 300.734375 145.640625 300.734375 155.359375 299.796875 165.007812 L 276.53125 169.78125 C 275.117188 179.035156 272.6875 188.097656 269.289062 196.816406 L 287.046875 212.585938 C 283.035156 221.410156 278.175781 229.820312 272.539062 237.707031 L 250.003906 230.21875 C 244.15625 237.515625 237.519531 244.15625 230.21875 250.003906 L 237.710938 272.539062 C 229.824219 278.175781 221.410156 283.03125 212.582031 287.046875 L 196.8125 269.289062 C 188.097656 272.6875 179.03125 275.117188 169.785156 276.53125 L 165.007812 299.796875 C 155.355469 300.734375 145.640625 300.734375 135.992188 299.796875 L 131.214844 276.53125 C 121.964844 275.117188 112.902344 272.6875 104.183594 269.289062 L 88.410156 287.046875 C 79.589844 283.03125 71.175781 278.175781 63.285156 272.539062 L 70.78125 250.003906 C 63.480469 244.15625 56.839844 237.515625 50.992188 230.21875 L 28.457031 237.707031 C 22.824219 229.820312 17.960938 221.410156 13.945312 212.585938 L 31.703125 196.816406 C 28.308594 188.097656 25.878906 179.035156 24.464844 169.78125 L 1.203125 165.007812 C 0.265625 155.359375 0.265625 145.640625 1.203125 135.992188 L 24.464844 131.210938 C 25.878906 121.964844 28.308594 112.902344 31.703125 104.183594 L 13.945312 88.414062 C 17.960938 79.589844 22.824219 71.171875 28.457031 63.285156 L 50.992188 70.78125 C 56.839844 63.476562 63.480469 56.84375 70.78125 50.996094 L 63.285156 28.457031 C 71.175781 22.824219 79.589844 17.960938 88.410156 13.953125 L 104.183594 31.710938 C 112.902344 28.308594 121.964844 25.882812 131.214844 24.46875 L 135.992188 1.203125 C 145.640625 0.265625 155.355469 0.265625 165.007812 1.203125 Z M 150.5 120.5 C 133.941406 120.5 120.5 133.941406 120.5 150.496094 C 120.5 167.058594 133.941406 180.5 150.5 180.5 C 167.054688 180.5 180.5 167.058594 180.5 150.496094 C 180.5 133.941406 167.054688 120.5 150.5 120.5 Z M 150.5 120.5 " clip-rule="nonzero"/></clipPath><clipPath id="d5427272f2"><rect x="0" width="301" y="0" height="301"/></clipPath></defs><rect x="-37.5" width="450" fill="#ffffff" y="-37.499999" height="449.999989" fill-opacity="1"/><rect x="-37.5" width="450" fill="#ffffff" y="-37.499999" height="449.999989" fill-opacity="1"/><g clip-path="url(#cfcf18468c)"><g clip-path="url(#b48449c301)"><g transform="matrix(1, 0, 0, 1, 9, 8)"><g clip-path="url(#4e7225d4ce)"><g clip-path="url(#f628d45802)"><g clip-path="url(#ec7f93ee29)"><path fill="#ff8e00" d="M 0.953125 0.175781 L 356.046875 0.175781 L 356.046875 359.429688 L 0.953125 359.429688 Z M 0.953125 0.175781 " fill-opacity="1" fill-rule="nonzero"/></g></g></g></g></g></g><g clip-path="url(#a13e661fdc)"><g clip-path="url(#322594603a)"><g transform="matrix(1, 0, 0, 1, 37, 37)"><g clip-path="url(#d5427272f2)"><g clip-path="url(#eba96d1ce2)"><g clip-path="url(#96cfd75c76)"><path fill="#07274c" d="M 0.5 0.5 L 300.5 0.5 L 300.5 300.5 L 0.5 300.5 Z M 0.5 0.5 " fill-opacity="1" fill-rule="nonzero"/></g></g></g></g></g></g></svg>